<?xml version="1.0"?>
<svg xmlns="http://www.w3.org/2000/svg" height="512px" viewBox="0 -7 511.99764 511" width="512px" class=""><g><path d="m30.425781 178.707031c13.113281-3.609375 27.230469-.457031 36.308594 9.632813.421875-.628906 1.871094-1.25 2.351563-1.855469 5.019531-6.347656 5.53125-10.394531 11.871093-16.867187-16.703125-5.703126-44.445312-15.4375-53.085937-22.0625-8.570313-6.570313-10.304688-25.089844-10.507813-36.785157-.042969-2.410156-3.355469-3.015625-4.257812-.785156-8.171875 20.242187-10.480469 55.816406 17.320312 68.722656zm0 0" fill="#ffe183" data-original="#FFE183" class="" data-old_color="#ffe183" style="fill:#FFFFFF"/><path d="m28.238281 147.824219c-.121093-.089844-.253906-.179688-.367187-.269531-8.570313-6.566407-10.308594-25.089844-10.507813-36.78125-.042969-2.410157-3.355469-3.019532-4.257812-.785157-8.171875 20.238281-10.480469 55.8125 17.320312 68.71875 5.402344-1.488281 10.96875-1.808593 16.285157-.988281-11.414063-6.824219-16.816407-17.984375-18.472657-29.894531zm0 0" fill="#ffc964" data-original="#FFC964" class="" data-old_color="#ffc964" style="fill:#FFFFFF"/><path d="m222.351562 178.707031c-13.113281-3.609375-27.230468-.457031-36.308593 9.632813-.421875-.628906-1.871094-1.25-2.351563-1.855469-5.019531-6.347656-5.53125-10.394531-11.871094-16.867187 16.703126-5.703126 44.445313-15.4375 53.085938-22.0625 8.570312-6.570313 10.308594-25.089844 10.507812-36.785157.042969-2.410156 3.355469-3.015625 4.257813-.785156 8.171875 20.242187 10.480469 55.816406-17.320313 68.722656zm0 0" fill="#ffe183" data-original="#FFE183" class="" data-old_color="#ffe183" style="fill:#FFFFFF"/><path d="m183.691406 186.484375c.484375.609375 1.933594 1.226563 2.355469 1.855469 4.695313-5.21875 10.742187-8.566406 17.296875-10.097656-2.648438-4.132813-3.601562-4.492188-5.933594-8.703126-1.378906-2.492187-2.953125-4.945312-4.699218-7.300781-7.457032 2.757813-14.886719 5.328125-20.890626 7.378907 6.339844 6.472656 6.851563 10.519531 11.871094 16.867187zm0 0" fill="#ffc964" data-original="#FFC964" class="" data-old_color="#ffc964" style="fill:#FFFFFF"/><path d="m498.355469 468.191406c-9.605469-16.792968-29.847657-31.964844-57.730469-44.320312-44.027344-15.296875-48.199219-17.65625-79-23.441406-41.746094-5.808594-61.800781-9.65625-109.199219-9.363282-76.117187 3.8125-58.527343 1.640625-129.808593 15.566406-54.0625 13.816407-93.867188 35.777344-108.613282 61.558594-5.667968 9.917969 1.441406 22.261719 12.867188 22.261719h458.621094c11.421874 0 18.53125-12.34375 12.863281-22.261719zm0 0" fill="#7fbb37" data-original="#7FBB37" class="" data-old_color="#7fbb37" style="fill:#FFFFFF"/><path d="m34 468.191406c14.742188-25.78125 54.550781-47.742187 108.613281-61.558594 70.605469-13.792968 54.03125-11.792968 127.691407-15.460937-5.542969-.105469-11.453126-.144531-17.878907-.101563-76.117187 3.808594-58.527343 1.640626-129.808593 15.5625-54.0625 13.820313-93.867188 35.777344-108.613282 61.558594-5.667968 9.917969 1.441406 22.261719 12.867188 22.261719h19.992187c-11.421875 0-18.53125-12.34375-12.863281-22.261719zm0 0" fill="#6c9b1b" data-original="#6C9B1B" class="" data-old_color="#6c9b1b" style="fill:#FFFFFF"/><path d="m159.761719 423.152344c2.558593 0 4.894531.964844 6.6875 2.539062l19.386719-82.988281c-.15625-.105469-.300782-.21875-.457032-.316406-6.226562-3.785157-17.125-10.960938-28.683594-21.082031-1.4375 12.902343-12.105468 24.1875-27.738281 24.1875l-8.144531 77.660156zm0 0" fill="#d1d0cf" data-original="#D1D0CF" class="" data-old_color="#d1d0cf" style="fill:#FFFFFF"/><path d="m156.695312 321.304688c-1.4375 12.902343-12.105468 24.1875-27.738281 24.1875l-8.144531 77.660156h20.347656l6.53125-62.308594c.804688-7.699219 5.605469-14.546875 12.765625-17.488281 4.992188-2.050781 9.054688-5.445313 11.925781-9.605469-4.789062-3.445312-10.160156-7.605469-15.6875-12.445312zm0 0" fill="#c1c1c1" data-original="#C1C1C1" class="" data-old_color="#c1c1c1" style="fill:#FFFDFD"/><path d="m348.816406 423.152344c2.558594 0 4.898438.964844 6.6875 2.539062l10.484375-44.25c-15.671875 10.527344-35.695312 11.351563-51.980469 2.777344l-4.136718 38.933594zm0 0" fill="#d1d0cf" data-original="#D1D0CF" class="" data-old_color="#d1d0cf" style="fill:#FFFFFF"/><path d="m334.210938 389.933594c-6.980469-.476563-13.875-2.382813-20.203126-5.71875l-4.136718 38.9375h20.8125zm0 0" fill="#c1c1c1" data-original="#C1C1C1" class="" data-old_color="#c1c1c1" style="fill:#FFFDFD"/><path d="m370.933594 338.679688c-3.355469-3.859376-8.804688-5.148438-13.523438-3.171876-11.941406 4.992188-36.996094 13.582032-69.484375 14.355469 4.910157 22.964844 25.3125 41.1875 49.742188 41.1875 22.296875 0 41.234375-15.347656 48.105469-35.308593zm0 0" fill="#c1c1c1" data-original="#C1C1C1" class="" data-old_color="#c1c1c1" style="fill:#FFFDFD"/><path d="m308.097656 348.355469c-6.332031.796875-13.074218 1.339843-20.171875 1.507812 6.230469 29.136719 36.152344 48.292969 65.003907 38.703125-22.035157-2.144531-39.988282-19.09375-44.832032-40.210937zm0 0" fill="#9e9a9a" data-original="#9E9A9A" class="" data-old_color="#9e9a9a" style="fill:#FFFFFF"/><path d="m480.871094 346.054688c.40625.46875 1.175781.191406 1.1875-.429688.117187-6.746094 10.136718-10.941406 10.136718-10.941406 18-7.992188 7.699219-29.570313-6.488281-26.074219-15.589843 3.847656-15.191406 25.5-4.835937 37.445313zm0 0" fill="#747791" data-original="#747791" class="" data-old_color="#747791" style="fill:#FFFFFF"/><path d="m498.570312 313.015625c-2.953124-3.578125-7.640624-5.691406-12.863281-4.40625-15.589843 3.84375-15.191406 25.5-4.835937 37.441406.40625.46875 1.175781.195313 1.1875-.425781.117187-6.75 10.136718-10.941406 10.136718-10.941406.976563-.433594 1.855469-.914063 2.667969-1.421875-1.839843-7.507813-.84375-15.335938 3.707031-20.246094zm0 0" fill="#525468" data-original="#525468" class="" data-old_color="#525468" style="fill:#FFFFFF"/><path d="m389.773438 198.535156c5.140624 29.078125-20.078126 37.964844-38.988282 41.09375-23.832031 3.941406-.632812 39.375-33.570312 42.339844-33.75 3.035156-22.347656-30.199219-48.992188-39.574219-12.082031-4.25-14.28125-24.554687-10.6875-38.011719-8.375-1.515624-16.738281-2.839843-24.238281-3.320312-7.945313 17.152344-27.515625 23.964844-44.75 17.816406-.574219 2.4375-3.933594 15.484375-12.015625 28.683594-2.566406 4.179688-2.101562 3.894531-12.050781 46.535156-.605469 2.585938-.59375 5.628906-.394531 6.378906.960937 8.261719-2.90625 13.558594-8.515626 16.957032.34375 2.4375.402344 4.347656.125 6.871094 11.558594 10.121093 23.457032 17.296874 29.683594 21.082031 3.429688 2.089843 5.757813 5.578125 6.398438 9.546875l10.96875 68.21875c48.730468 0 46.425781-.492188 49.679687 1.488281v-69.222656c0-3.636719 3.195313-6.410157 6.804688-5.96875 46.242187 5.699219 82.921875-6.5625 98.179687-12.941407 4.722656-1.976562 10.167969-.6875 13.527344 3.171876l15.847656 18.21875c3.078125 3.542968 4.933594 7.988281 5.285156 12.671874l3.929688 52.582032h39.375c1.917969 0 3.714844.550781 5.25 1.488281v-71.5c0-5.796875 1.644531-11.496094 4.851562-16.328125 28.285157-42.601562 23.339844-134.382812-55.703124-138.277344zm0 0" fill="#e4e3e1" data-original="#E4E3E1" class="" data-old_color="#e4e3e1" style="fill:#FFFFFF"/><path d="m415.578125 366c-.257813-3.363281-1.417969-6.59375-3.359375-9.355469l-10.773438-15.328125c-2.511718-3.578125-6.613281-5.707031-10.984374-5.707031h-27.996094c3.191406.132813 6.277344 1.546875 8.46875 4.070313l15.847656 18.21875c3.082031 3.542968 4.9375 7.988281 5.285156 12.671874l3.933594 52.582032h23.988281zm0 0" fill="#d1d0cf" data-original="#D1D0CF" class="" data-old_color="#d1d0cf" style="fill:#FFFFFF"/><path d="m212.558594 342.140625c-.816406-4.832031-3.527344-9.140625-7.53125-11.96875l-15.539063-10.96875c-3.410156-2.40625-5.300781-6.511719-4.679687-10.636719.484375-3.230468.554687-6.597656.175781-10.066406 5.761719-24.6875 8.527344-37.144531 9.503906-40.34375.03125-.042969.058594-.089844.085938-.140625 4.859375-7.921875 12.367187-22.070313 15.398437-37.9375-6.894531 1.660156-14.355468 1.324219-21.425781-1.199219-.574219 2.4375-3.933594 15.484375-12.015625 28.683594-2.566406 4.179688-2.101562 3.894531-12.050781 46.535156-.605469 2.585938-.59375 5.628906-.394531 6.378906.855468 7.363282-2.09375 13.066407-8.515626 16.957032h.003907c.34375 2.4375.402343 4.347656.121093 6.871094 9.597657 8.402343 19.324219 14.785156 29.683594 21.082031 3.429688 2.089843 5.761719 5.578125 6.398438 9.546875l10.96875 68.21875c9.710937 0 17.386718-.019532 23.492187-.035156zm0 0" fill="#d1d0cf" data-original="#D1D0CF" class="" data-old_color="#d1d0cf" style="fill:#FFFFFF"/><path d="m478.167969 98.238281c-1.308594-18.757812-18.347657-33.515625-37.96875-30.933593-.007813 0-.015625 0-.027344 0-5.425781.277343-5.742187-4.003907-5.742187-4.003907h-.007813c-1.890625-23.246093-21.34375-41.53125-45.078125-41.53125-20.0625 0-37.0625 13.0625-42.984375 31.140625-.703125 2.148438-2.867187 3.476563-5.09375 3.089844-9.242187-1.597656-18.875 1.648438-25.257813 9.105469-1.132812 1.320312-2.894531 1.875-4.609374 1.585937-20.660157-3.453125-39.054688 12.382813-39.664063 32.503906-.582031 19.273438 14.871094 35.085938 34.011719 35.085938h138.871094c19.371093 0 34.917968-16.378906 33.550781-36.042969zm0 0" fill="#72bdf6" data-original="#72BDF6" class="" data-old_color="#72bdf6" style="fill:#FFFFFF"/><path d="m291.730469 99.195312c.609375-20.121093 19.003906-35.957031 39.664062-32.503906 1.714844.289063 3.476563-.265625 4.609375-1.585937 6.382813-7.457031 16.015625-10.703125 25.257813-9.105469 2.226562.386719 4.390625-.941406 5.09375-3.089844 4.90625-14.980468 17.421875-26.503906 32.980469-30.019531-3.214844-.726563-6.554688-1.121094-9.992188-1.121094-20.058594 0-37.058594 13.0625-42.984375 31.140625-.703125 2.148438-2.863281 3.476563-5.09375 3.089844-9.242187-1.597656-18.875 1.648438-25.257813 9.105469-1.132812 1.320312-2.894531 1.875-4.609374 1.585937-20.660157-3.453125-39.050782 12.382813-39.660157 32.503906-.585937 19.273438 14.867188 35.085938 34.011719 35.085938h19.996094c-19.148438 0-34.597656-15.8125-34.015625-35.085938zm0 0" fill="#4b98d4" data-original="#4B98D4" class="" data-old_color="#4b98d4" style="fill:#FFFFFF"/><path d="m311.398438 66.691406c1.714843.289063 3.476562-.265625 4.605468-1.585937 6.390625-7.464844 16.027344-10.703125 25.261719-9.105469 2.226563.386719 4.386719-.941406 5.09375-3.089844 2.035156-6.21875 5.386719-11.847656 9.71875-16.550781-4.195313-4.28125-10.117187-6.179687-15.949219-5.175781-1.503906.257812-2.941406-.609375-3.417968-2.0625-3.945313-12.035156-15.265626-20.730469-28.621094-20.730469-15.621094 0-28.464844 11.890625-29.976563 27.113281v.007813c-.441406 2.617187-2.480469 3.578125-4.597656 3.113281v.019531c-13.023437-1.296875-23.941406 8.796875-24.597656 21.039063-.691407 12.929687 9.589843 23.628906 22.363281 23.628906h5.003906c6.90625-11.917969 20.570313-19.050781 35.113282-16.621094zm0 0" fill="#2472b2" data-original="#2472B2" class="" data-old_color="#2472b2" style="fill:#FFFBFB"/><path d="m268.914062 59.6875c.65625-12.242188 11.574219-22.339844 24.597657-21.039062v-.019532c2.117187.460938 4.15625-.5 4.59375-3.117187 0-.003907.003906-.003907.003906-.007813 1.171875-11.800781 9.15625-21.59375 19.960937-25.402344-3.125-1.097656-6.480468-1.710937-9.980468-1.710937-15.621094 0-28.464844 11.890625-29.976563 27.113281 0 .003906 0 .003906-.003906.007813-.4375 2.617187-2.480469 3.578125-4.59375 3.117187v.019532c-13.023437-1.300782-23.941406 8.796874-24.597656 21.039062-.691407 12.925781 9.585937 23.628906 22.363281 23.628906h5.003906c.765625-1.324218 1.628906-2.578125 2.554688-3.777344-6.320313-4.230468-10.371094-11.582031-9.925782-19.851562zm0 0" fill="#1c5d9f" data-original="#1C5D9F" class="" data-old_color="#1c5d9f" style="fill:#FFFFFF"/><path d="m348.484375 203.308594c-26.527344 6.726562-54.199219 8.058594-81.082031 2.925781-4-.765625-8.074219-1.539063-12.125-2.253906-4.816406 13.207031-.070313 34.835937 12.945312 39.414062 26.648438 9.375 15.242188 42.609375 48.992188 39.574219 32.941406-2.960938 11.75-38.390625 33.570312-42.339844 19.085938-3.453125 44.75-12.214844 38.816406-42.125-11.972656-.570312-25.613281.875-41.117187 4.804688zm0 0" fill="#525468" data-original="#525468" class="" data-old_color="#525468" style="fill:#FFFFFF"/><path d="m319.335938 282.714844c.40625-.058594.808593-.121094 1.199218-.191406.136719-.023438.269532-.046876.40625-.074219.40625-.078125.804688-.160157 1.191406-.25.09375-.023438.1875-.042969.28125-.066407.472657-.113281.933594-.234374 1.375-.367187h.007813c-17.597656-6.109375-13.339844-30.542969-35.578125-38.371094-11.957031-4.207031-16.929688-22.65625-13.929688-36.003906-2.300781-.34375-4.597656-.71875-6.886718-1.15625-4-.765625-8.074219-1.535156-12.125-2.253906-.753906 2.0625-1.269532 4.328125-1.5625 6.703125v.015625c-.058594.46875-.105469.941406-.144532 1.414062-.003906.011719-.003906.023438-.003906.035157-.039062.46875-.070312.941406-.089844 1.414062 0 .019531 0 .042969-.003906.0625-.019531.464844-.03125.933594-.035156 1.402344v.097656c-.003906.457031.003906.914062.015625 1.375 0 .046875.003906.09375.003906.140625.011719.445313.035157.894531.0625 1.34375.003907.058594.007813.117187.011719.175781.03125.4375.066406.875.109375 1.308594.007813.074219.015625.148438.023437.222656.042969.421875.089844.839844.148438 1.261719.011719.089844.023438.179687.035156.269531.058594.402344.121094.808594.1875 1.210938.019532.105468.039063.207031.058594.3125.066406.386718.140625.773437.21875 1.15625.027344.121094.054688.242187.078125.363281.082031.367187.164063.730469.253906 1.09375.03125.132813.066407.269531.101563.402344.089844.347656.179687.691406.277344 1.035156.042968.148437.089843.296875.136718.445313.097656.324218.195313.648437.300782.96875.054687.160156.109374.320312.164062.480468.105469.304688.210938.609375.324219.910156.0625.167969.128906.335938.195312.503907.113281.285156.226563.570312.34375.851562.074219.175781.15625.351563.234375.53125.117188.261719.234375.527344.355469.785157.089844.183593.183594.363281.273437.546874.125.246094.246094.492188.375.730469.097657.1875.203126.371094.308594.554688.128906.226562.253906.453125.386719.675781.113281.191406.234375.375.351563.558594.128906.207031.261718.417968.394531.617187.128906.191407.261719.371094.394531.554688.136719.191406.269531.382812.410156.570312.136719.183594.285156.359375.429688.539063.140625.171875.277344.351562.421875.519531.152343.179687.3125.347656.472656.523437.144531.15625.28125.316407.429687.46875.167969.171876.34375.332032.519532.5.144531.140626.289062.285157.4375.417969.183594.164063.371094.316407.558594.46875.148437.125.296874.253907.449218.375.195313.152344.398438.289063.601563.433594.152343.109375.300781.222656.453125.324219.21875.144531.441406.273437.664062.40625.148438.089844.292969.183594.445313.269531.253906.140625.519531.265625.78125.390625.125.0625.246093.132812.375.1875.394531.179688.796875.339844 1.207031.484375 26.644531 9.375 15.242188 42.609375 48.992188 39.574219.578124-.050782 1.140624-.117188 1.6875-.1875.152343-.015625.292968-.039063.4375-.0625zm0 0" fill="#3e4151" data-original="#3E4151" class="active-path" data-old_color="#3e4151" style="fill:#FFFFFF"/><path d="m67.734375 188.339844c-12.644531-14.054688-35.433594-16.121094-50.535156-3.816406-1.359375 1.109374-2.074219 2.8125-1.921875 4.558593 2.046875 23.53125 26.890625 38.691407 48.988281 30.785157-2.601563-10.585938-2.824219-22.140626 3.46875-31.527344zm0 0" fill="#c1c1c1" data-original="#C1C1C1" class="" data-old_color="#c1c1c1" style="fill:#FFFDFD"/><path d="m35.332031 189.082031c-.152343-1.746093.566407-3.449219 1.921875-4.558593 3.957032-3.226563 8.445313-5.453126 13.140625-6.746094-11.148437-3.046875-23.691406-.996094-33.195312 6.746094-1.359375 1.109374-2.074219 2.8125-1.921875 4.558593 1.980468 22.757813 25.28125 37.683594 46.804687 31.488281-13.980469-3.945312-25.390625-15.867187-26.75-31.488281zm0 0" fill="#9e9a9a" data-original="#9E9A9A" class="" data-old_color="#9e9a9a" style="fill:#FFFFFF"/><path d="m185.046875 188.339844c12.640625-14.054688 35.433594-16.121094 50.53125-3.816406 1.359375 1.109374 2.074219 2.8125 1.925781 4.558593-2.050781 23.53125-26.894531 38.691407-48.992187 30.785157 2.601562-10.585938 2.824219-22.140626-3.464844-31.527344zm0 0" fill="#c1c1c1" data-original="#C1C1C1" class="" data-old_color="#c1c1c1" style="fill:#FFFDFD"/><path d="m202.941406 177.628906c-6.78125 1.742188-13.078125 5.351563-17.894531 10.710938 6.289063 9.386718 6.066406 20.941406 3.464844 31.527344 7.105469 2.542968 14.492187 2.691406 21.3125.953124 2.8125-14.042968 2.179687-29.488281-6.882813-43.191406zm0 0" fill="#9e9a9a" data-original="#9E9A9A" class="" data-old_color="#9e9a9a" style="fill:#FFFFFF"/><g fill="#525468"><path d="m159.761719 422.152344h-49.914063c-5.589844 0-10.164062 4.574218-10.164062 10.167968v6.265626c0 5.589843 4.574218 10.164062 10.164062 10.164062h49.914063c5.589843 0 10.164062-4.574219 10.164062-10.164062v-6.265626c0-5.59375-4.574219-10.167968-10.164062-10.167968zm0 0" data-original="#000000" class="" data-old_color="#000000" style="fill:#000000"/><path d="m348.816406 422.152344h-49.914062c-5.589844 0-10.164063 4.574218-10.164063 10.167968v6.265626c0 5.589843 4.574219 10.164062 10.164063 10.164062h49.914062c5.59375 0 10.167969-4.574219 10.167969-10.164062v-6.265626c-.003906-5.59375-4.578125-10.167968-10.167969-10.167968zm0 0" data-original="#000000" class="" data-old_color="#000000" style="fill:#000000"/><path d="m247.171875 422.152344h-53.691406c-5.589844 0-10.164063 4.574218-10.164063 10.167968v6.265626c0 5.589843 4.574219 10.164062 10.164063 10.164062h53.691406c5.59375 0 10.164063-4.574219 10.164063-10.164062v-6.265626c0-5.59375-4.574219-10.167968-10.164063-10.167968zm0 0" data-original="#000000" class="" data-old_color="#000000" style="fill:#000000"/><path d="m435.371094 422.152344h-53.691406c-5.589844 0-10.164063 4.574218-10.164063 10.167968v6.265626c0 5.589843 4.574219 10.164062 10.164063 10.164062h53.691406c5.59375 0 10.167968-4.574219 10.167968-10.164062v-6.265626c0-5.59375-4.574218-10.167968-10.167968-10.167968zm0 0" data-original="#000000" class="" data-old_color="#000000" style="fill:#000000"/></g><path d="m119.675781 438.585938v-6.265626c0-5.59375 4.574219-10.167968 10.167969-10.167968h-19.996094c-5.589844 0-10.164062 4.574218-10.164062 10.167968v6.265626c0 5.589843 4.574218 10.164062 10.164062 10.164062h19.996094c-5.59375 0-10.167969-4.574219-10.167969-10.164062zm0 0" fill="#3e4151" data-original="#3E4151" class="active-path" data-old_color="#3e4151" style="fill:#FFFFFF"/><path d="m308.734375 438.585938v-6.265626c0-5.59375 4.574219-10.167968 10.164063-10.167968h-19.996094c-5.589844 0-10.164063 4.574218-10.164063 10.167968v6.265626c0 5.589843 4.574219 10.164062 10.164063 10.164062h19.996094c-5.589844 0-10.164063-4.574219-10.164063-10.164062zm0 0" fill="#3e4151" data-original="#3E4151" class="active-path" data-old_color="#3e4151" style="fill:#FFFFFF"/><path d="m203.3125 438.585938v-6.265626c0-5.59375 4.574219-10.167968 10.164062-10.167968h-19.996093c-5.589844 0-10.164063 4.574218-10.164063 10.167968v6.265626c0 5.589843 4.574219 10.164062 10.164063 10.164062h19.996093c-5.589843 0-10.164062-4.574219-10.164062-10.164062zm0 0" fill="#3e4151" data-original="#3E4151" class="active-path" data-old_color="#3e4151" style="fill:#FFFFFF"/><path d="m391.511719 438.585938v-6.265626c0-5.59375 4.574219-10.167968 10.164062-10.167968h-19.992187c-5.59375 0-10.167969 4.574218-10.167969 10.167968v6.265626c0 5.589843 4.574219 10.164062 10.167969 10.164062h19.992187c-5.589843 0-10.164062-4.574219-10.164062-10.164062zm0 0" fill="#3e4151" data-original="#3E4151" class="active-path" data-old_color="#3e4151" style="fill:#FFFFFF"/><path d="m184.726562 186.527344c-1.808593-2.292969-3.394531-4.75-4.808593-7.300782-4.71875-8.519531-17.949219-26.097656-43.40625-16.746093-6.566407 2.410156-13.742188 2.375-20.308594-.027344-25.246094-9.234375-38.453125 8.03125-43.246094 16.601563-1.449219 2.589843-3.03125 5.101562-4.871093 7.429687-15.804688 19.980469 1.273437 51.484375 7.179687 61.109375 1.273437 2.070312 2.195313 4.335938 2.746094 6.707031 10.113281 43.34375 10.167969 42 9.679687 46.175781-2.917968 25.128907 38.699219 22.917969 38.699219 22.917969s41.617187 2.210938 38.695313-22.917969c-.246094-2.132812-.09375-4.289062.394531-6.378906 10.121093-43.382812 9.484375-42.355468 12.050781-46.535156 5.917969-9.648438 22.925781-41.074219 7.195312-61.035156zm0 0" fill="#e4e3e1" data-original="#E4E3E1" class="" data-old_color="#e4e3e1" style="fill:#FFFFFF"/><path d="m107.167969 305.136719c.484375-4.3125.433593-2.925781-9.679688-47.707031-.554687-2.445313-1.476562-4.789063-2.75-6.929688-5.90625-9.941406-22.984375-42.488281-7.175781-63.132812 5.257812-6.867188 9.890625-21.007813 25.03125-26.066407-22.902344-6.398437-35.078125 9.601563-39.636719 17.753907-1.449219 2.589843-3.03125 5.101562-4.871093 7.429687-15.804688 19.980469 1.273437 51.484375 7.179687 61.105469 1.273437 2.074218 2.195313 4.339844 2.746094 6.710937 10.113281 43.34375 10.164062 42 9.679687 46.175781-1.984375 17.066407 16.574219 21.523438 28.6875 22.625-5.988281-3.492187-10.214844-9.070312-9.210937-17.964843zm0 0" fill="#d1d0cf" data-original="#D1D0CF" class="" data-old_color="#d1d0cf" style="fill:#FFFFFF"/><path d="m179.917969 179.222656c-4.71875-8.515625-17.949219-26.097656-43.40625-16.746094-3.273438 1.203126-6.699219 1.796876-10.121094 1.792969v50.035157c0 11.53125 7 21.90625 17.691406 26.21875l31.019531 12.515624c.566407-1.921874 1.378907-3.761718 2.429688-5.472656 5.917969-9.652344 22.925781-41.074218 7.195312-61.039062-1.808593-2.292969-3.394531-4.75-4.808593-7.304688zm0 0" fill="#525468" data-original="#525468" class="" data-old_color="#525468" style="fill:#FFFFFF"/><path d="m96.207031 316.101562c-.175781 1.253907-.300781 2.527344-.300781 3.832032 0 15.035156 12.1875 27.222656 27.222656 27.222656h6.519532c16.261718 0 29.292968-14.308594 26.921874-31.054688-14.089843 8.546876-47.277343 7.9375-60.363281 0zm0 0" fill="#ea6868" data-original="#EA6868" class="" data-old_color="#ea6868" style="fill:#FFFFFF"/><path d="m115.964844 321.695312c-7.945313-.890624-15.117188-2.777343-19.757813-5.59375-.175781 1.257813-.300781 2.53125-.300781 3.832032 0 15.035156 12.1875 27.222656 27.222656 27.222656h6.519532c2.320312 0 4.566406-.296875 6.71875-.84375-11.21875-2.867188-19.640626-12.699219-20.402344-24.617188zm0 0" fill="#ea5454" data-original="#EA5454" class="" data-old_color="#ea5454" style="fill:#FFFFFF"/><path d="m87.589844 295.609375c.246094 1.609375.289062 3.246094.101562 4.867187-2.917968 25.128907 38.699219 22.917969 38.699219 22.917969s41.617187 2.210938 38.695313-22.921875c-.1875-1.617187-.140626-3.253906.105468-4.863281-20.011718-15.539063-57.644531-15.5-77.601562 0zm0 0" fill="#f47878" data-original="#F47878" class="" style="fill:#FFFFFF" data-old_color="#f47878"/><path d="m87.746094 297.011719c.183594 1.503906.085937 2.253906-.054688 3.460937v.003906.007813c-1.789062 15.445313 13.269532 21.214844 28.691406 22.617187-5.988281-3.492187-10.214843-9.070312-9.214843-17.964843.335937-2.980469.414062-3.242188-2.914063-17.917969-6.230468 1.9375-11.945312 4.726562-16.664062 8.390625.070312.464844.121094.933594.15625 1.402344zm0 0" fill="#ea6868" data-original="#EA6868" class="" data-old_color="#ea6868" style="fill:#FFFFFF"/><path d="m15.074219 176.097656c-.976563.671875-1.9375 1.378906-2.871094 2.140625-3.28125 2.671875-5.023437 6.792969-4.65625 11.019531 2.222656 25.542969 25.789063 43.179688 50.261719 39.1875 3.21875 9.363282 7.667968 17.480469 10.804687 22.59375.84375 1.375 1.460938 2.886719 1.835938 4.488282 7.429687 31.828125 9.441406 39.660156 9.59375 42.242187.011719.464844-.007813.921875-.058594 1.367188-.992187 8.523437 1.8125 16.03125 8.167969 21.441406-.128906 18.355469 14.125 33.53125 32.191406 34.835937l-4.882812 44.800782c-54.742188 14.726562-93.078126 37.285156-108.226563 63.78125-8.53125 14.917968 2.183594 33.480468 19.375 33.480468h211.8125c4.144531 0 7.5-3.355468 7.5-7.5 0-4.140624-3.355469-7.496093-7.5-7.496093h-211.8125c-5.652344 0-9.175781-6.105469-6.355469-11.039063 10.824219-18.933594 37.683594-36.386718 75.4375-49.492187-2.457031 3.128906-3.769531 7.042969-3.769531 10.894531v5.265625c0 6.695313 3.746094 12.535156 9.253906 15.527344 2.5 1.363281 5.367188 2.136719 8.410157 2.136719h49.914062c7.730469 0 14.589844-5.144532 16.859375-12.394532 2.222656 7.097656 8.964844 12.394532 16.859375 12.394532h53.691406c9.738282 0 17.664063-7.921876 17.664063-17.664063v-5.269531c0-4.496094-1.722657-8.851563-4.910157-12.1875v-22.5625c15.085938.085937 30.125.730468 44.875 1.917968l-1.65625 15.171876h-4.242187c-9.738281 0-17.660156 7.921874-17.660156 17.660156v4.773437c0 10.863281 8.390625 18.15625 17.660156 18.15625h49.417969c8.203125 0 14.4375-4.839843 16.9375-11.164062 2.664062 6.707031 9.226562 11.164062 16.425781 11.164062h53.691406c9.738281 0 17.660157-7.921875 17.660157-17.660156v-.277344c18.699218 10.191407 31.976562 21.652344 38.8125 33.605469 2.816406 4.929688-.695313 11.039062-6.355469 11.039062h-211.816407c-4.140624 0-7.496093 3.359376-7.496093 7.5 0 4.140626 3.355469 7.496094 7.496093 7.496094h211.816407c17.179687 0 27.90625-18.550781 19.371093-33.480468-9.671874-16.914063-29.242187-32.558594-56.738281-45.417969v-65.90625c0-14.386719 11.921875-15.957031 18.402344-50.285157.769531-4.070312-1.90625-7.992187-5.976563-8.757812-4.074218-.769531-7.992187 1.90625-8.761718 5.976562-6.140625 32.539063-18.664063 32.574219-18.664063 53.066407v62.511719h-30.167969c-.144531-1.949219-.570312-7.609376-3.410156-45.644532-.5625-7.488281-3.550781-12.945312-8.113281-18.1875l-14.839844-17.0625c-5.488281-6.3125-14.363281-8.398437-22.078125-5.171875-26.621094 11.125-60.859375 16.550781-94.371094 12.421875-8.078124-.996094-15.21875 5.28125-15.21875 13.40625v60.238282s-35.785156 0-35.792968 0c-.339844-2.113282-4.640625-28.847657-9.957032-61.910157-.988281-6.152343-4.597656-11.535156-9.902343-14.761719-7.941407-4.828124-16.582031-10.96875-24.886719-17.957031 2.070312-1.765625 3.789062-3.738281 5.179688-6.101562 4.894531-8.335938 2.289062-15.097657 3.214843-19.121094 7.207031-30.886719 9-39.4375 10.160157-42.425781.285156-.65625.609374-1.289063.980468-1.890625 4.242188-6.921875 8.0625-14.660157 10.777344-22.554688 16.1875 2.664063 32.488281-3.988281 42.3125-17.660156.558594-.773437 1.089844-1.5625 1.59375-2.375 2.578125.210937 5.140625.46875 7.691406.75-1.082031 8.574219.238282 18.234375 3.863282 26.226563 3.570312 7.875 8.957031 13.269531 15.570312 15.59375 8.882812 3.125 12.167969 9.761718 15.96875 17.441406 5.449219 11.007812 12.21875 24.683594 36.183594 22.53125 24.117187-2.171875 26.648437-19.769532 28.164062-30.285156 1.386719-9.648438 2.292969-11.464844 6.066406-12.144532 15.765626-2.855468 33.304688-7.0625 41.902344-20.960937 3.84375-6.210938 5.320313-13.617188 4.445313-22.097657 32.605469 5.167969 50.742187 29.339844 54.53125 61.402344.484375 4.113282 4.222656 7.054688 8.324219 6.566406 4.113281-.484374 7.054687-4.210937 6.566406-8.324218-1.492188-12.65625-5.011719-24.199219-10.269532-34.25 42.59375-2.460938 46.265626 38.894531 32.183594 69.433594-23.289062-1.277344-32.132812 29.953124-14.597656 50.1875h.003906c4.886719 5.632812 14.152344 2.308593 14.347656-5.136719.339844-1 2.835938-3.035157 5.6875-4.292969 16.769532-7.445312 17.261719-24.785156 8.152344-34.390625 21.933594-46.867187 3.042969-99.542969-55.113281-89.871094-24.945313-29.972656-64.140625-31.742187-101.636719-22.234375-48.171875 12.210938-75.015625 1.992188-102.328125-.679687.292969-1.519531.519531-3.0625.65625-4.625.371094-4.226563-1.371093-8.347657-4.65625-11.023438-.933593-.761719-1.894531-1.46875-2.871093-2.140625 19.652343-18.152344 17.074218-49.839844 9.179687-69.394531-3.949219-9.78125-18.523437-7.085937-18.703125 3.464844-.328125 18.796875-4.125 28.320312-7.574219 30.960937-5.460937 4.1875-22.011719 11.222656-45.714843 19.460938-11.097657-9.070313-25.421876-11.238282-40.707032-5.625-4.847656 1.78125-10.226562 1.769531-15.148437-.027344-15.234375-5.574219-29.539063-3.394531-40.621094 5.65625-23.707031-8.242188-40.261719-15.277344-45.722656-19.464844-3.449219-2.640625-7.25-12.164062-7.570313-30.960937-.1875-10.558594-14.761718-13.238281-18.710937-3.460938-7.890625 19.550781-10.464844 51.238281 9.1875 69.390625zm473.871093 151.238282c-.882812.375-4.128906 1.851562-7.34375 4.464843-1.058593-3.742187-1.199218-7.613281-.207031-10.738281 2.15625-6.796875 10.160157-7.945312 12.3125-1.652344 1.109375 3.238282-.582031 6.050782-4.761719 7.925782zm-139.757812-93.558594c-15.074219 2.726562-16.980469 15.988281-18.242188 24.765625-1.632812 11.355469-2.855468 16.421875-14.664062 17.484375-13.734375 1.238281-16.460938-4.265625-21.398438-14.246094-4.363281-8.8125-9.792968-19.785156-24.433593-24.933594-2.625-.925781-5.070313-3.640625-6.890625-7.644531-2.394532-5.285156-3.335938-12.167969-2.675782-17.9375 1.625.277344 3.246094.550781 4.851563.855469 58.632813 11.207031 82.269531-7.359375 117.242187-7.53125 3.53125 20.210937-12.226562 25.285156-33.789062 29.1875zm-326.574219-44.644532c10.257813-7.691406 24.359375-7.5 34.492188.269532-3.441407 7.789062-3.960938 16.21875-2.859375 24.402344-15.136719 1.816406-29.617188-8.90625-31.632813-24.671876zm175.394531 24.671876c1.132813-8.414063.558594-16.667969-2.859374-24.402344 10.203124-7.839844 24.308593-7.90625 34.496093-.269532-1.992187 15.566407-16.328125 26.507813-31.636719 24.671876zm-20.988281 134.882812-16.128906 66.546875c-1-.078125.957031-.054687-31.976563-.054687.640626-5.855469 5.71875-52.457032 6.566407-60.214844 10.535156-1.875 19.890625-8.636719 24.796875-18.214844 5.109375 4.03125 11.503906 8.5625 16.742187 11.9375zm-.660156 78.886719c-.445313-1.421875-1.226563-3.042969-1.996094-4.246094 1.476563-6.097656.347657-1.433594 4.933594-20.363281 4.03125-.53125 8.101563-1.019532 12.1875-1.464844l2.199219 13.679688c-8.566406 0-15.058594 5.140624-17.324219 12.394531zm12.742187-40.890625c-2.015624.21875-4.023437.453125-6.027343.695312l3.691406-15.230468zm-31.890624-87.792969c.074218 2.886719 1.789062 7.667969-4.785157 11.65625 0 .003906-.003906.003906-.003906.003906-10.738281 6.511719-41.367187 6.804688-52.585937 0-6.40625-3.878906-4.96875-8.332031-4.753907-11.679687 16.875-10.496094 45.265625-10.488282 62.128907.019531zm-52.550782 29.476563c12.03125 2.953124 30.539063 3.03125 42.886719.011718-2.792969 6.617188-9.324219 12.140625-18.851563 12.140625h-5.828124c-8.195313 0-15.230469-5.023437-18.207032-12.152343zm4.925782 112.410156c-1.445313 0-2.667969-1.21875-2.667969-2.664063v-5.269531c0-1.445312 1.222656-2.664062 2.667969-2.664062.355468 0 49.621093-.003907 49.976562.003906 1.410156.039062 2.605469 1.269531 2.605469 2.660156v5.269531c0 1.445313-1.222657 2.664063-2.667969 2.664063zm139.992187-2.664063c0 1.445313-1.222656 2.664063-2.667969 2.664063h-53.691406c-1.441406 0-2.664062-1.21875-2.664062-2.664063v-5.269531c0-1.445312 1.222656-2.664062 2.664062-2.664062h51.046875c1.90625.035156 5.3125-.4375 5.3125 2.664062zm109.128906-94.613281c1.121094-.457031 4.007813-2.019531 6.308594.628906l11.84375 13.613282c-7.011719 15.339843-22.421875 25.339843-39.449219 25.339843-17.261718 0-32.726562-10.390625-39.601562-25.675781 21.984375-1.589844 43.382812-6.75 60.898437-13.90625zm6.277344 82.878906c-.394531-1.011718-1.046875-2.253906-1.566406-3.050781l3.546875-14.636719c7.039062 1.433594 13.917968 3.007813 20.558594 4.703125l.132812 1.785157h-6.238281c-7.253907 0-13.769531 4.496093-16.433594 11.199218zm-44.863281-30.90625c11.320312 3.523438 23.394531 3.496094 34.617187-.007812-4.429687 18.28125-2.535156 10.464844-4.792969 19.769531-1-.078125.960938-.054687-31.972656-.054687 1.503906-13.816407 1.050782-9.636719 2.148438-19.707032zm66.226562 2.179688c-5.171875-1.253906-10.464844-2.4375-15.851562-3.539063l1.859375-7.671875c4.644531-3.472656 8.773437-7.632812 12.230469-12.371094zm-87.707031 43.125c-1.023437 0-2.664063-.695313-2.664063-3.179688v-4.753906c0-1.445312 1.222657-2.664062 2.664063-2.664062h49.917969c1.449218 0 2.664062 1.261718 2.664062 2.664062v5.269531c0 1.09375-.738281 2.664063-3.164062 2.664063zm139.136719-2.664063c0 1.445313-1.21875 2.664063-2.664063 2.664063h-53.691406c-1.445313 0-2.667969-1.21875-2.667969-2.664063v-5.269531c0-1.445312 1.222656-2.664062 2.667969-2.664062h53.691406.007813c1.429687.007812 2.65625 1.25 2.65625 2.664062zm-155.816406-80.191406c3.5 10.628906 9.972656 19.832031 18.34375 26.734375-13.398438-.953125-26.992188-1.476562-40.644532-1.558594v-26.488281c7.707032.886719 15.15625 1.285156 22.300782 1.3125zm-52.75-204.890625c3.1875-2.445312 5.816406-5.976562 7.882812-10.570312-1.050781 10.839843-5.570312 21.023437-15.933594 26.832031-11.710937-2.363281-24.105468.175781-34.046875 7.363281-.238281-.40625-.476562-.808594-.714843-1.21875-.058594-.109375-.121094-.210938-.183594-.320312-.4375-.792969-.894532-1.5625-1.359375-2.316407 23.003906-8.183593 37.902343-14.824219 44.355469-19.769531zm-50.660157 37.628906c10.710938 13.539063 1.480469 37.476563-7.53125 52.277344l-24.390625-9.839844c-7.898437-3.1875-13.003906-10.75-13.003906-19.265625v-43.300781c1.496094-.308594 3.621094-.90625 5.210938-1.488281 25.941406-9.527344 33.265624 13.46875 39.714843 21.617187zm-59.921875-20.148437v43.320312c0 14.664063 8.789063 27.683594 22.390625 33.171875l24.996094 10.085938c-1.300781 5.410156-3.117187 13.390625-6.09375 26.203125-19.972656-9.734375-47.578125-9.738281-67.558594-.015625-7.988281-34.355469-7.859375-35.015625-10.96875-40.082032-8.273437-13.476562-17.210937-35.417968-9.765625-49.34375 1.867188-3.527343 3.429688-4.132812 7.609375-11.609374 13.46875-24.109376 33.757813-12.894532 39.390625-11.730469zm-95.582031-17.480469c6.445313 4.945312 21.347656 11.585938 44.351563 19.769531-1.089844 1.777344-1.285157 2.242188-2.253907 3.859375-9.941406-7.1875-22.335937-9.730468-34.050781-7.367187-10.359375-5.808594-14.878906-15.992188-15.929688-26.828125 2.0625 4.589844 4.691407 8.121094 7.882813 10.566406zm0 0" data-original="#000000" class="" data-old_color="#000000" style="fill:#000000"/><path d="m95.945312 223.410156c4.136719 0 7.5-3.359375 7.5-7.5 0-4.867187-4.488281-8.246094-8.96875-7.347656-3.371093.648438-6.027343 3.683594-6.027343 7.347656 0 4.09375 3.320312 7.5 7.496093 7.5zm0 0" data-original="#000000" class="" data-old_color="#000000" style="fill:#000000"/><path d="m154.792969 223.410156c4.183593 0 7.5-3.390625 7.5-7.5 0-3.605468-2.609375-6.707031-6.03125-7.347656-4.667969-.960938-8.964844 2.699219-8.964844 7.347656 0 4.042969 3.296875 7.5 7.496094 7.5zm0 0" data-original="#000000" class="" data-old_color="#000000" style="fill:#000000"/><path d="m112.8125 295.882812c-3.628906.773438-6.027344 3.84375-6.027344 7.347657 0 4.085937 3.300782 7.5 7.496094 7.5 4.109375 0 7.5-3.335938 7.5-7.5 0-4.851563-4.488281-8.25-8.96875-7.347657zm0 0" data-original="#000000" class="" data-old_color="#000000" style="fill:#000000"/><path d="m139.105469 310.730469c4.148437 0 7.488281-3.375 7.488281-7.5 0-4.734375-4.324219-8.257813-8.957031-7.347657-3.6875.769532-6.027344 3.921876-6.027344 7.347657 0 4.132812 3.335937 7.5 7.496094 7.5zm0 0" data-original="#000000" class="" data-old_color="#000000" style="fill:#000000"/><path d="m355.191406 26.105469c-3.949218-2.164063-8.402344-3.253907-12.894531-3.148438-14.570313-33.417969-64.144531-28.4375-71.351563 7.605469-16.015624.011719-28.949218 12.824219-29.777343 28.25-.816407 15.265625 9.746093 28.082031 24.027343 30.941406-6.527343 26.023438 13.148438 51.554688 40.289063 51.554688h138.871094c23.238281 0 42.738281-19.589844 41.027343-44.066406-1.53125-21.992188-20.867187-39.847657-44.09375-38.085938-5.691406-40.351562-54.15625-59.835938-86.097656-33.050781zm-83.222656 49.238281c-10.527344 0-16.246094-7.863281-15.824219-15.730469.425781-7.964843 7.582031-14.835937 16.332031-13.984375 6.75 1.019532 12.257813-3.785156 12.839844-9.859375 2.414063-24.308593 36.460938-27.808593 44.011719-4.785156 1.644531 5.015625 6.609375 8.011719 11.8125 7.113281 1.191406-.203125 2.382813-.207031 3.53125-.015625-2.019531 3.164063-3.761719 6.695313-4.886719 9.71875-10.425781-1.019531-21.222656 2.808594-28.722656 10.824219-15.378906-2.09375-30.277344 4.554688-39.09375 16.71875zm168.191406-1.019531c.066406 0 .128906-.003907.195313-.007813.1875-.007812.375-.027344.5625-.050781 15.4375-2.035156 28.507812 9.683594 29.507812 24.019531 1.066407 15.273438-10.945312 28.023438-26.070312 28.023438h-138.867188c-14.953125 0-26.972656-12.320313-26.515625-27.359375.46875-15.503907 14.675782-28.050781 30.929688-25.335938 4.324218.722657 8.75-.847656 11.542968-4.105469 4.523438-5.285156 11.347657-7.792968 18.28125-6.589843 5.835938 1.007812 11.644532-2.492188 13.5-8.148438 0-.007812.003907-.015625.007813-.023437 13.035156-39.714844 70.207031-31.253906 73.453125 8.6875.019531.222656.046875.445312.082031.664062.757813 5.351563 5.507813 10.574219 13.390625 10.226563zm0 0" data-original="#000000" class="" data-old_color="#000000" style="fill:#000000"/></g> </svg>
